<svg id="Camada_1" data-name="Camada 1" xmlns="http://www.w3.org/2000/svg" viewBox="0 0 661 519"><defs><style>.cls-1{fill:#20202d;}</style></defs><title>logo desviralata ok</title><path class="cls-1" d="M255.93,363c-17-18.7-53.8-23.46-70-4.23-22.22,26.32-20.78,57.46,4.33,83.19,13.71,14,30.28,23.43,47.57,31.68,2.24,1.07,4.51,2.12,6.65,3.38,3.34,2,3.53,4,.32,6-6.83,4.2-14,6.4-22.18,4.47-14.38-3.37-28.31-8.15-41.16-15.49a195.21,195.21,0,0,1-33.67-23.92,169.76,169.76,0,0,1-45.59-66c-6.53-16.74-10.87-34.1-10-52.41.2-4-2-5-5-5.49A80.34,80.34,0,0,1,43,301.86c-8.12-8-15.1-17.1-18.95-28.34C21.85,267,23,262.58,28.07,260c5.83-3,11.58-1.63,14.15,4.62A51.7,51.7,0,0,0,65.8,291.18a56.05,56.05,0,0,0,27.66,6.68c5.43,0,10.41-2.05,12.73-7.34,3.39-7.73,9.61-13,14.69-19.14,17-20.67,39.31-33.33,63.65-41.41,19.38-6.43,39.65-10,60-12.47,11.15-1.34,21.87-4.85,32.94-6.71,16.69-2.79,47-9.82,47.14-9.88,12.34-5.6,31.59-12.79,34.5-15.91,41.05-43.93-1-47,6.75-86.32.09-.44.06-.9.18-1.34C377.59,55.81,396.26,38.27,408.24,51c8.12,8.63-.7,45.88,6.75,55s17.82,4.47,28.65,4.9c13.13.52,24.44,6.09,35.26,13a37.38,37.38,0,0,1,15.91,21.38c3.65,12,12.63,18.92,23.27,23.66,6.5,2.89,13.24,5.18,19.87,7.76,8.77,3.4,11.73,8.71,10.25,18.34-1.64,10.64-7.18,18.94-14.52,26.17a105.94,105.94,0,0,0-8.48,8.61c-8.29,10.28-19.35,15.29-31.57,17.64-13.95,2.69-27.5,7-41.4,9.86-2.83.58-3.62,2.51-4.4,4.76-5.6,16.23-11.11,32.48-16.17,48.93-8.5,27.61-22.19,52.84-36.27,77.78-13.12,23.23-27.39,37.57-45.18,57.31-8.75,9.71-19.61,21.91-32.28,21.17-4.11-.24-7.77-1.7-9.52-6.13-1.81-4.59,1-7.45,3.66-10.31,5.34-5.82,10.79-11.54,16.14-17.32,20.71-22.36,31.91-48.53,26.72-80.11-5-30.09-31.35-47.14-62.57-35.86-17.44,6.3-30.59,14.75-35.46,32.43A33.94,33.94,0,0,0,255.93,363Z"/><path class="cls-1" d="M423.33,82.3s-.07-17.71,2.79-29.51c12.77-15,43.73-13.63,25.73,17.21C434,100.61,442,89,445.1,94.52S420.56,111.52,423.33,82.3Z"/></svg>