<svg id="Camada_1" data-name="Camada 1" xmlns="http://www.w3.org/2000/svg" viewBox="0 0 1560 582"><defs><style>.cls-1,.cls-2{fill:#20202d;}.cls-2{font-size:71.52px;font-family:Helvetica;}</style></defs><title>logodesviralata</title><path class="cls-1" d="M535.9,250.36A45.69,45.69,0,0,1,561.61,258q11.52,7.6,19.72,21.19t12.61,32.33a177.83,177.83,0,0,1,4.41,40.78q0,30.12-4.65,50.33T578.64,435q-10.42,12.24-27.19,17.39t-41,5.14H470.25V250.36ZM497.2,451.94h25.71q23.52,0,35.89-25.35t12.37-74.34A165.85,165.85,0,0,0,567,314a102.38,102.38,0,0,0-12.12-30.49,62.26,62.26,0,0,0-19.23-20.09,45.79,45.79,0,0,0-25.23-7.22H497.2Z"/><path class="cls-1" d="M640,364.74a21.6,21.6,0,0,0-.24,3.43V376a163.75,163.75,0,0,0,2.32,27.43,103,103,0,0,0,7.23,24.74A50.57,50.57,0,0,0,662,446.06a27.7,27.7,0,0,0,18.86,6.86q7.11,0,13.84-6.74a138.3,138.3,0,0,0,13.84-16.53l6.37,2.94q-4.41,6.38-8.82,11.75a54.38,54.38,0,0,1-9.67,9.31,39.66,39.66,0,0,1-11.88,6,52.43,52.43,0,0,1-15.68,2.08,47,47,0,0,1-24.12-6.36A57.77,57.77,0,0,1,626.27,438a86.43,86.43,0,0,1-11.75-25.72,114.4,114.4,0,0,1-4.17-31.35,119.73,119.73,0,0,1,5.15-35.52,96.91,96.91,0,0,1,14.33-29.14,71.35,71.35,0,0,1,21.55-19.72,52.67,52.67,0,0,1,27.07-7.23q13,0,22.41,7a56.22,56.22,0,0,1,15.55,17.88,87.78,87.78,0,0,1,9.06,24.37,122.85,122.85,0,0,1,2.94,26.21Zm68.58-10.29A121.39,121.39,0,0,0,707,335.23,82,82,0,0,0,702,317a36.64,36.64,0,0,0-9.31-13.59,20.56,20.56,0,0,0-14.2-5.27,23,23,0,0,0-15.56,5.63A47.41,47.41,0,0,0,652,317.84a87.48,87.48,0,0,0-7,18.24,164.19,164.19,0,0,0-3.79,18.37Z"/><path class="cls-1" d="M820.75,316.73a52.48,52.48,0,0,0-11.88-12.61,24.39,24.39,0,0,0-14.82-4.77,23.93,23.93,0,0,0-10.16,2.2,27.94,27.94,0,0,0-8.45,6,28.32,28.32,0,0,0-5.76,8.7,26,26,0,0,0-2.08,10.28,38.78,38.78,0,0,0,3.79,17.76,28.91,28.91,0,0,0,12.13,12.12q9.3,5.4,18.74,10.29a102.66,102.66,0,0,1,17,11,52,52,0,0,1,12.37,14.33q4.77,8.2,4.77,20.21a52.31,52.31,0,0,1-3.3,18.25,45.55,45.55,0,0,1-10,15.92,48.52,48.52,0,0,1-17,11.14q-10.29,4.17-24.49,4.16a44.1,44.1,0,0,1-14.7-2.32A41,41,0,0,1,755.11,453a53.32,53.32,0,0,1-9.31-9.43,84.06,84.06,0,0,1-7.59-11.76l9.55-6.12a50.42,50.42,0,0,0,12.73,17.63,39.88,39.88,0,0,0,9,6,22.37,22.37,0,0,0,9.91,2.32,32.88,32.88,0,0,0,13.23-2.45,25.92,25.92,0,0,0,9.31-6.61,26.86,26.86,0,0,0,5.39-9.31A33.94,33.94,0,0,0,809,422.54q0-10.28-5-17a53.8,53.8,0,0,0-12.61-12,153.28,153.28,0,0,0-16.54-9.92,94.36,94.36,0,0,1-16.53-10.9,54.15,54.15,0,0,1-12.61-14.94q-5-8.68-5-21.92a44.71,44.71,0,0,1,3.55-17.51,49.25,49.25,0,0,1,9.67-14.94,46.07,46.07,0,0,1,14.33-10.29,41.22,41.22,0,0,1,17.51-3.8q16.17,0,26,4.78t16.9,16.29Z"/><path class="cls-1" d="M868.26,292.73l33.07,120.51,36.49-120.51h9.31l-51.44,169h-3.42l-53.15-169Z"/><path class="cls-1" d="M984.11,265.05a15.47,15.47,0,0,1-4.65,11.15,15.1,15.1,0,0,1-22.05,0,15.47,15.47,0,0,1-4.65-11.15,15.69,15.69,0,0,1,15.68-15.92,15,15,0,0,1,11.26,4.54A15.67,15.67,0,0,1,984.11,265.05Zm-2.45,27.68V457.32H954.47V301.06Z"/><path class="cls-1" d="M1025.26,292.73v36.74a149.65,149.65,0,0,1,8.69-19.84,60.67,60.67,0,0,1,8.57-12.37A25.31,25.31,0,0,1,1051,291a21.8,21.8,0,0,1,8.33-1.72,19.63,19.63,0,0,1,14.45,5.88l-13,16.9a9.22,9.22,0,0,0-3.79-1.59,38.48,38.48,0,0,0-6.25-.37c-1.47,0-3.59,1.15-6.37,3.43a50.76,50.76,0,0,0-8.45,9.31,65,65,0,0,0-7.47,13.59,43,43,0,0,0-3.18,16.54V457.57h-27V301.06Z"/><path class="cls-1" d="M1076.2,311.35q16.41-22.05,49-22.05a57.35,57.35,0,0,1,19.35,3.06,43.3,43.3,0,0,1,14.45,8.33,36.81,36.81,0,0,1,9.06,12.25,35.31,35.31,0,0,1,3.18,14.82v108.5q0,13.47,5.15,21.06h-26.7a31.26,31.26,0,0,1-4.53-9.79,43.27,43.27,0,0,1-1.35-11,84.91,84.91,0,0,1-4.53,9.55,27.77,27.77,0,0,1-6.73,8.08,33.31,33.31,0,0,1-9.92,5.51,40.78,40.78,0,0,1-13.84,2.08q-12.26,0-20.45-3.67a34.2,34.2,0,0,1-13.23-10,39.86,39.86,0,0,1-7.23-14.94,74.63,74.63,0,0,1-2.2-18.62q0-17.15,12.86-29.39t39.07-17.88q10.51-2.2,17.26-7.47t9.19-15.55V331.68a28.49,28.49,0,0,0-2.45-11.15A39.8,39.8,0,0,0,1135,310a35.55,35.55,0,0,0-9.8-7.84,24.79,24.79,0,0,0-12-3.06q-16.17,0-28.66,16.17Zm67.85,45.06a18.8,18.8,0,0,1-5.76,11.76,35.09,35.09,0,0,1-12.61,7.1q-33.08,10.78-33.07,33.8a105.58,105.58,0,0,0,1.23,15.92,50.65,50.65,0,0,0,4.28,14.46,29.5,29.5,0,0,0,8.09,10.4,19.06,19.06,0,0,0,12.37,4q8.57,0,14.69-8.94a74.52,74.52,0,0,0,9.8-21.93l1-8.57Z"/><path class="cls-1" d="M1214.34,246V457.32h-27.19v-203Z"/><path class="cls-1" d="M1238.1,311.35q16.39-22.05,49-22.05a57.31,57.31,0,0,1,19.35,3.06,43.2,43.2,0,0,1,14.45,8.33,37,37,0,0,1,9.07,12.25,35.31,35.31,0,0,1,3.18,14.82v108.5q0,13.47,5.14,21.06h-26.69a31.07,31.07,0,0,1-4.54-9.79,43.27,43.27,0,0,1-1.34-11,86.69,86.69,0,0,1-4.53,9.55,27.81,27.81,0,0,1-6.74,8.08,33.19,33.19,0,0,1-9.92,5.51,40.78,40.78,0,0,1-13.84,2.08q-12.24,0-20.45-3.67A34.34,34.34,0,0,1,1237,448a40,40,0,0,1-7.22-14.94,74.62,74.62,0,0,1-2.21-18.62q0-17.15,12.86-29.39t39.07-17.88q10.53-2.2,17.27-7.47t9.18-15.55V331.68a28.49,28.49,0,0,0-2.45-11.15,39.54,39.54,0,0,0-6.61-10.53,35.41,35.41,0,0,0-9.8-7.84,24.79,24.79,0,0,0-12-3.06q-16.17,0-28.66,16.17Zm67.84,45.06a18.79,18.79,0,0,1-5.75,11.76,35.14,35.14,0,0,1-12.62,7.1q-33.06,10.78-33.06,33.8a105.55,105.55,0,0,0,1.22,15.92,50.65,50.65,0,0,0,4.29,14.46,29.48,29.48,0,0,0,8.08,10.4,19.07,19.07,0,0,0,12.37,4q8.57,0,14.69-8.94A74.52,74.52,0,0,0,1305,423l1-8.57Z"/><path class="cls-1" d="M1384.07,292.73h21.56v5.88h-21.56V424a28.32,28.32,0,0,0,2.08,10.41,39.18,39.18,0,0,0,5.39,9.56,27.29,27.29,0,0,0,7.6,6.85,17.05,17.05,0,0,0,8.94,2.58q6.12,0,13.47-5.88l2.45,5.88a28.59,28.59,0,0,1-11.64,6.61,49,49,0,0,1-29.88-1.35A38.61,38.61,0,0,1,1360.07,437a43.35,43.35,0,0,1-3.18-16.9V298.61h-12.74v-5.88q34.53,0,39.92-40.17Z"/><path class="cls-1" d="M1436.49,311.35q16.4-22.05,49-22.05a57.35,57.35,0,0,1,19.35,3.06,43.3,43.3,0,0,1,14.45,8.33,36.81,36.81,0,0,1,9.06,12.25,35.32,35.32,0,0,1,3.19,14.82v108.5q0,13.47,5.14,21.06H1510a31.26,31.26,0,0,1-4.53-9.79,43.27,43.27,0,0,1-1.34-11,85,85,0,0,1-4.54,9.55,27.77,27.77,0,0,1-6.73,8.08,33.31,33.31,0,0,1-9.92,5.51,40.78,40.78,0,0,1-13.84,2.08q-12.25,0-20.45-3.67a34.34,34.34,0,0,1-13.23-10,39.84,39.84,0,0,1-7.22-14.94,74.62,74.62,0,0,1-2.21-18.62q0-17.15,12.86-29.39t39.07-17.88q10.53-2.2,17.27-7.47t9.18-15.55V331.68a28.49,28.49,0,0,0-2.45-11.15,39.54,39.54,0,0,0-6.61-10.53,35.41,35.41,0,0,0-9.8-7.84,24.79,24.79,0,0,0-12-3.06q-16.17,0-28.66,16.17Zm67.84,45.06a18.75,18.75,0,0,1-5.76,11.76,35.09,35.09,0,0,1-12.61,7.1q-33.06,10.78-33.06,33.8a105.55,105.55,0,0,0,1.22,15.92,50.34,50.34,0,0,0,4.29,14.46,29.48,29.48,0,0,0,8.08,10.4,19.06,19.06,0,0,0,12.37,4q8.57,0,14.69-8.94a74.52,74.52,0,0,0,9.8-21.93l1-8.57Z"/><text class="cls-2" transform="translate(461.68 539.06)">Adestramento e Educação Canina</text><path class="cls-1" d="M246.49,389c-16.94-18.7-53.7-23.46-69.9-4.23-22.18,26.32-20.74,57.46,4.32,83.19,13.68,14,30.22,23.43,47.48,31.68,2.24,1.07,4.5,2.12,6.64,3.38,3.33,2,3.52,4,.32,6-6.82,4.2-14,6.4-22.14,4.47-14.35-3.37-28.25-8.15-41.08-15.49a194.77,194.77,0,0,1-33.61-23.92,169.76,169.76,0,0,1-45.5-66c-6.52-16.74-10.85-34.1-9.94-52.41.2-4-2-5-5-5.49A80.12,80.12,0,0,1,34,327.86c-8.1-8-15.07-17.1-18.92-28.34C12.85,293,14,288.58,19.06,286c5.82-3,11.56-1.63,14.12,4.62a51.69,51.69,0,0,0,23.53,26.56,55.94,55.94,0,0,0,27.61,6.68c5.42,0,10.39-2.05,12.71-7.34,3.39-7.73,9.59-13,14.66-19.14,16.95-20.67,39.24-33.33,63.54-41.41,19.34-6.43,39.56-10,59.85-12.47,11.13-1.34,21.83-4.85,32.88-6.71C284.61,234,314.87,227,315,226.91c12.31-5.6,31.52-12.79,34.43-15.91,41-43.93-1-47,6.74-86.32.09-.44.06-.9.18-1.34C367.92,81.81,386.55,64.27,398.51,77c8.1,8.63-.7,45.88,6.74,55s17.78,4.47,28.59,4.9c13.1.52,24.4,6.09,35.19,13a37.37,37.37,0,0,1,15.88,21.38c3.65,12,12.6,18.92,23.23,23.66,6.48,2.89,13.22,5.18,19.83,7.76,8.75,3.4,11.71,8.71,10.23,18.34-1.63,10.64-7.16,18.94-14.49,26.17a107.48,107.48,0,0,0-8.47,8.61c-8.27,10.28-19.31,15.29-31.51,17.64-13.92,2.69-27.44,7-41.31,9.86-2.84.58-3.62,2.51-4.39,4.76-5.6,16.23-11.09,32.48-16.15,48.93-8.48,27.61-22.14,52.84-36.2,77.78-13.09,23.23-27.34,37.57-45.09,57.31C331.85,481.84,321,494,308.37,493.3c-4.1-.24-7.76-1.7-9.5-6.13-1.81-4.59,1-7.45,3.65-10.31,5.33-5.82,10.77-11.54,16.11-17.32,20.67-22.36,31.85-48.53,26.66-80.11-4.94-30.09-31.28-47.14-62.44-35.86-17.41,6.3-30.54,14.75-35.4,32.43A34,34,0,0,0,246.49,389Z"/><path class="cls-1" d="M413.57,108.3s-.07-17.71,2.78-29.51C429.1,63.81,460,65.16,442,96c-17.83,30.61-9.87,19-6.73,24.52S410.8,137.52,413.57,108.3Z"/><circle class="cls-1" cx="580.47" cy="98.04" r="49.15"/></svg>