<svg id="Camada_1" data-name="Camada 1" xmlns="http://www.w3.org/2000/svg" viewBox="0 0 884 809"><defs><style>.cls-1,.cls-2{fill:#20202d;}.cls-2{font-size:52.95px;font-family:Helvetica;}</style></defs><title>logodesviralata</title><path class="cls-1" d="M100,546.72a33.89,33.89,0,0,1,19,5.62A48.24,48.24,0,0,1,133.65,568,82.89,82.89,0,0,1,143,592a131.48,131.48,0,0,1,3.27,30.19q0,22.3-3.45,37.27t-11.15,24a41.8,41.8,0,0,1-20.13,12.88q-12.44,3.81-30.38,3.8H51.41V546.72ZM71.36,696h19q17.4,0,26.57-18.77t9.16-55A122.77,122.77,0,0,0,123,593.87a75.86,75.86,0,0,0-9-22.58,46.19,46.19,0,0,0-14.23-14.87,33.93,33.93,0,0,0-18.68-5.35H71.36Z"/><path class="cls-1" d="M177.08,631.41a15.77,15.77,0,0,0-.18,2.54v5.8a121.11,121.11,0,0,0,1.73,20.32A75.93,75.93,0,0,0,184,678.38a37.33,37.33,0,0,0,9.43,13.24,20.44,20.44,0,0,0,14,5.08q5.26,0,10.25-5a101.18,101.18,0,0,0,10.24-12.24l4.72,2.18q-3.27,4.71-6.53,8.7a40.42,40.42,0,0,1-7.16,6.89,29.29,29.29,0,0,1-8.8,4.45,39.06,39.06,0,0,1-11.61,1.54,34.71,34.71,0,0,1-17.86-4.72,42.66,42.66,0,0,1-13.69-12.87,64.12,64.12,0,0,1-8.71-19,85,85,0,0,1-3.08-23.21,88.68,88.68,0,0,1,3.81-26.3,71.85,71.85,0,0,1,10.61-21.58,52.92,52.92,0,0,1,16-14.6,39.06,39.06,0,0,1,20-5.35,27.15,27.15,0,0,1,16.59,5.17A41.7,41.7,0,0,1,233.67,594a64.9,64.9,0,0,1,6.71,18,91,91,0,0,1,2.17,19.4Zm50.78-7.62a90.47,90.47,0,0,0-1.17-14.23A60.9,60.9,0,0,0,223,596.05,27.24,27.24,0,0,0,216.08,586a15.23,15.23,0,0,0-10.52-3.9A17,17,0,0,0,194,586.25,35.39,35.39,0,0,0,186,596.68a64.43,64.43,0,0,0-5.17,13.51,122.84,122.84,0,0,0-2.81,13.6Z"/><path class="cls-1" d="M310.92,595.87a38.41,38.41,0,0,0-8.79-9.34,18.05,18.05,0,0,0-11-3.54,17.71,17.71,0,0,0-7.53,1.63,20.73,20.73,0,0,0-6.26,4.45,21.09,21.09,0,0,0-4.26,6.43,19.25,19.25,0,0,0-1.54,7.62,28.63,28.63,0,0,0,2.81,13.15,21.4,21.4,0,0,0,9,9q6.88,4,13.87,7.61a75.4,75.4,0,0,1,12.6,8.16A38.26,38.26,0,0,1,319,651.63q3.54,6.07,3.54,15a38.77,38.77,0,0,1-2.45,13.52,33.58,33.58,0,0,1-7.43,11.78A35.9,35.9,0,0,1,300,700.14a48.13,48.13,0,0,1-18.13,3.09A32.65,32.65,0,0,1,271,701.5a30.36,30.36,0,0,1-8.7-4.71,39.62,39.62,0,0,1-6.89-7,62.21,62.21,0,0,1-5.62-8.71l7.07-4.53a37.64,37.64,0,0,0,9.43,13.06,29.51,29.51,0,0,0,6.62,4.44,16.54,16.54,0,0,0,7.34,1.72,24.45,24.45,0,0,0,9.8-1.81,19.21,19.21,0,0,0,6.89-4.9,19.83,19.83,0,0,0,4-6.89,25.26,25.26,0,0,0,1.27-8q0-7.62-3.72-12.6a39.71,39.71,0,0,0-9.34-8.89,112.24,112.24,0,0,0-12.24-7.34,70.05,70.05,0,0,1-12.24-8.07,40.09,40.09,0,0,1-9.34-11.07q-3.72-6.43-3.72-16.23a33.26,33.26,0,0,1,2.63-13A36.74,36.74,0,0,1,261.41,586,34.12,34.12,0,0,1,272,578.37a30.42,30.42,0,0,1,13-2.82q12,0,19.22,3.54t12.52,12.06Z"/><path class="cls-1" d="M346.1,578.09l24.49,89.23,27-89.23h6.89L366.42,703.23h-2.54L324.52,578.09Z"/><path class="cls-1" d="M431.88,557.6a11.45,11.45,0,0,1-3.44,8.25,11.19,11.19,0,0,1-16.33,0,11.45,11.45,0,0,1-3.44-8.25,11.61,11.61,0,0,1,11.6-11.79,11.14,11.14,0,0,1,8.35,3.36A11.63,11.63,0,0,1,431.88,557.6Zm-1.81,20.49V700H409.94V584.26Z"/><path class="cls-1" d="M462.35,578.09V605.3a110.42,110.42,0,0,1,6.43-14.69,44.8,44.8,0,0,1,6.35-9.16,18.75,18.75,0,0,1,6.26-4.63,16.18,16.18,0,0,1,6.16-1.27,14.54,14.54,0,0,1,10.7,4.36l-9.61,12.51a6.81,6.81,0,0,0-2.81-1.18,29.1,29.1,0,0,0-4.62-.27q-1.63,0-4.72,2.54a37.46,37.46,0,0,0-6.25,6.89,48,48,0,0,0-5.54,10.07,31.73,31.73,0,0,0-2.35,12.24v77.43h-20V584.26Z"/><path class="cls-1" d="M500.07,591.88q12.15-16.32,36.27-16.33a42.49,42.49,0,0,1,14.33,2.27,32,32,0,0,1,10.7,6.17,27.37,27.37,0,0,1,6.71,9.07,26.12,26.12,0,0,1,2.35,11v80.34q0,10,3.81,15.59H554.47a23,23,0,0,1-3.35-7.25,31.9,31.9,0,0,1-1-8.16,62.5,62.5,0,0,1-3.35,7.07,20.79,20.79,0,0,1-5,6,24.8,24.8,0,0,1-7.35,4.08,30.37,30.37,0,0,1-10.24,1.54q-9.08,0-15.15-2.72a25.45,25.45,0,0,1-9.79-7.44A29.46,29.46,0,0,1,493.9,682a55.1,55.1,0,0,1-1.63-13.78,29,29,0,0,1,9.52-21.77q9.52-9.06,28.93-13.23a30.67,30.67,0,0,0,12.78-5.54q5-3.88,6.8-11.51v-9.25a21,21,0,0,0-1.81-8.25,29.19,29.19,0,0,0-4.9-7.8,25.87,25.87,0,0,0-7.25-5.8,18.37,18.37,0,0,0-8.89-2.27q-12,0-21.22,12Zm50.23,33.37A13.89,13.89,0,0,1,546,634a26,26,0,0,1-9.34,5.26q-24.48,8-24.48,25a77.7,77.7,0,0,0,.91,11.78,37.42,37.42,0,0,0,3.17,10.7,21.74,21.74,0,0,0,6,7.71,14.11,14.11,0,0,0,9.16,3q6.34,0,10.88-6.62a55.3,55.3,0,0,0,7.26-16.23l.72-6.34Z"/><path class="cls-1" d="M602.35,543.46V700H582.22V549.62Z"/><path class="cls-1" d="M619.94,591.88q12.15-16.32,36.27-16.33a42.49,42.49,0,0,1,14.33,2.27,32,32,0,0,1,10.7,6.17,27.37,27.37,0,0,1,6.71,9.07,26.12,26.12,0,0,1,2.35,11v80.34q0,10,3.81,15.59H674.35a22.82,22.82,0,0,1-3.36-7.25,31.9,31.9,0,0,1-1-8.16,62.5,62.5,0,0,1-3.35,7.07,20.63,20.63,0,0,1-5,6,24.75,24.75,0,0,1-7.34,4.08,30.47,30.47,0,0,1-10.25,1.54q-9.07,0-15.14-2.72a25.41,25.41,0,0,1-9.8-7.44A29.46,29.46,0,0,1,613.77,682a55.57,55.57,0,0,1-1.63-13.78,29,29,0,0,1,9.52-21.77q9.52-9.06,28.93-13.23a30.67,30.67,0,0,0,12.78-5.54q5-3.88,6.8-11.51v-9.25a21,21,0,0,0-1.81-8.25,29.19,29.19,0,0,0-4.9-7.8,25.87,25.87,0,0,0-7.25-5.8,18.34,18.34,0,0,0-8.89-2.27q-12,0-21.21,12Zm50.23,33.37a13.89,13.89,0,0,1-4.26,8.7,26,26,0,0,1-9.34,5.26q-24.48,8-24.48,25A77.7,77.7,0,0,0,633,676a37.42,37.42,0,0,0,3.17,10.7,21.86,21.86,0,0,0,6,7.71,14.13,14.13,0,0,0,9.16,3q6.35,0,10.88-6.62a54.78,54.78,0,0,0,7.26-16.23l.72-6.34Z"/><path class="cls-1" d="M728,578.09h16v4.36H728V675.3a20.83,20.83,0,0,0,1.55,7.71,28.28,28.28,0,0,0,4,7.07,20.12,20.12,0,0,0,5.62,5.08,12.65,12.65,0,0,0,6.62,1.9q4.53,0,10-4.35l1.81,4.35A21.08,21.08,0,0,1,749,702a36.19,36.19,0,0,1-22.12-1,28.59,28.59,0,0,1-16.6-16.05,32.06,32.06,0,0,1-2.36-12.51V582.45h-9.43v-4.36q25.57,0,29.56-29.74Z"/><path class="cls-1" d="M766.83,591.88Q779,575.56,803.1,575.55a42.45,42.45,0,0,1,14.33,2.27,31.87,31.87,0,0,1,10.7,6.17,27.24,27.24,0,0,1,6.71,9.07,26.13,26.13,0,0,1,2.36,11v80.34q0,10,3.81,15.59H821.24a23.26,23.26,0,0,1-3.36-7.25,32.35,32.35,0,0,1-1-8.16,62.57,62.57,0,0,1-3.36,7.07,20.63,20.63,0,0,1-5,6,24.62,24.62,0,0,1-7.34,4.08A30.43,30.43,0,0,1,791,703.23q-9.08,0-15.14-2.72a25.37,25.37,0,0,1-9.79-7.44A29.31,29.31,0,0,1,760.67,682,55.09,55.09,0,0,1,759,668.23a29,29,0,0,1,9.52-21.77q9.53-9.06,28.93-13.23a30.71,30.71,0,0,0,12.79-5.54q5-3.88,6.8-11.51v-9.25a21,21,0,0,0-1.82-8.25,29.41,29.41,0,0,0-4.89-7.8,26.06,26.06,0,0,0-7.26-5.8,18.33,18.33,0,0,0-8.88-2.27q-12,0-21.22,12Zm50.24,33.37a14,14,0,0,1-4.27,8.7,26,26,0,0,1-9.33,5.26q-24.5,8-24.49,25a77.7,77.7,0,0,0,.91,11.78,37.42,37.42,0,0,0,3.17,10.7,21.77,21.77,0,0,0,6,7.71,14.09,14.09,0,0,0,9.16,3q6.35,0,10.88-6.62a55,55,0,0,0,7.25-16.23l.73-6.34Z"/><text class="cls-2" transform="translate(45.06 760.48)">Adestramento e Educação Canina</text><path class="cls-1" d="M395.93,426c-17-18.7-53.8-23.46-70-4.23-22.22,26.32-20.78,57.46,4.33,83.19,13.71,14,30.28,23.43,47.57,31.68,2.24,1.07,4.51,2.12,6.65,3.38,3.34,2,3.53,4,.32,6-6.83,4.2-14,6.4-22.18,4.47-14.38-3.37-28.31-8.15-41.16-15.49a195.21,195.21,0,0,1-33.67-23.92,169.76,169.76,0,0,1-45.59-66c-6.53-16.74-10.87-34.1-10-52.41.2-4-2-5-5-5.49A80.34,80.34,0,0,1,183,364.86c-8.12-8-15.1-17.1-18.95-28.34-2.24-6.54-1.07-10.94,4-13.52,5.83-3,11.58-1.63,14.15,4.62a51.7,51.7,0,0,0,23.58,26.56,56.05,56.05,0,0,0,27.66,6.68c5.43,0,10.41-2.05,12.73-7.34,3.39-7.73,9.61-13,14.69-19.14,17-20.67,39.31-33.33,63.65-41.41,19.38-6.43,39.65-10,60-12.47,11.15-1.34,21.87-4.85,32.94-6.71,16.69-2.79,47-9.82,47.14-9.88,12.34-5.6,31.59-12.79,34.5-15.91,41.05-43.93-1-47,6.75-86.32.09-.44.06-.9.18-1.34,11.58-41.53,30.25-59.07,42.23-46.34,8.12,8.63-.7,45.88,6.75,55s17.82,4.47,28.65,4.9c13.13.52,24.44,6.09,35.26,13a37.38,37.38,0,0,1,15.91,21.38c3.65,12,12.63,18.92,23.27,23.66,6.5,2.89,13.24,5.18,19.87,7.76,8.77,3.4,11.73,8.71,10.25,18.34-1.64,10.64-7.18,18.94-14.52,26.17a105.94,105.94,0,0,0-8.48,8.61c-8.29,10.28-19.35,15.29-31.57,17.64-14,2.69-27.5,7-41.4,9.86-2.83.58-3.62,2.51-4.4,4.76-5.6,16.23-11.11,32.48-16.17,48.93-8.5,27.61-22.19,52.84-36.27,77.78-13.12,23.23-27.39,37.57-45.18,57.31-8.75,9.71-19.61,21.91-32.28,21.17-4.11-.24-7.77-1.7-9.52-6.13-1.81-4.59,1-7.45,3.66-10.31,5.34-5.82,10.79-11.54,16.14-17.32,20.71-22.36,31.91-48.53,26.72-80.11-5-30.09-31.35-47.14-62.57-35.86-17.44,6.3-30.59,14.75-35.46,32.43A33.94,33.94,0,0,0,395.93,426Z"/><path class="cls-1" d="M563.33,145.3s-.07-17.71,2.79-29.51c12.77-15,43.73-13.63,25.73,17.21C574,163.61,582,152,585.1,157.52S560.56,174.52,563.33,145.3Z"/><circle class="cls-1" cx="730.47" cy="135.04" r="49.15"/></svg>